<?xml version="1.0" encoding="UTF-8"?>
<svg id="Capa_1" data-name="Capa 1" xmlns="http://www.w3.org/2000/svg" viewBox="0 0 316.18 313.79">
  <defs>
    <style>
      .cls-1 {
        fill: #3e96e3;
        stroke-width: 0px;
      }
    </style>
  </defs>
  <path class="cls-1"
    d="M26.02,275.12c.67-11.41,3.2-23.77,8.07-35.57,1.47-3.56.88-5.27-2.64-6.91-8.6-4-17.04-8.37-25.52-12.64-6.78-3.42-7.63-6.65-3.17-13,6.18-8.79,14.52-15.13,24.06-19.76,4.01-1.95,3.99-3.62,1.9-7.1C16.01,158.98,7.92,135.88.88,112.38c-2.25-7.5.6-10.53,8.28-9.2,8.53,1.47,17.05,3.01,25.37,5.5,4.77,1.42,5.34.87,4.1-4.02-4.25-16.81-9.39-33.35-16.01-49.39-1.17-2.83-2.59-5.62-.18-8.4,2.36-2.71,5.36-2,8.35-1.3,25.77,6.09,49.76,15.98,70.44,32.92,2.82,2.31,3.92,1.39,4.69-1.68,7.39-29.35,25.44-52.03,45.94-73.14,4.67-4.81,7.62-4.94,12.28-.06,20.31,21.24,38.55,43.83,45.52,73.36.94,3.97,2.31,4.02,5.27,1.56,21.12-17.58,45.91-27.28,72.35-33.4,2.48-.57,4.63-.13,6.34,1.83,1.92,2.21,1.53,4.56.46,7-6.53,14.83-11.32,30.25-15.61,45.84-.44,1.6-.82,3.23-1.13,4.87-1,5.2-.82,5.38,4.13,3.93,8.17-2.39,16.53-3.92,24.89-5.42,8.11-1.46,11.24,1.87,8.79,9.69-7.26,23.24-15.26,46.21-27.73,67.3-2.09,3.54-1.94,5.16,1.97,7.11,9.48,4.73,17.83,11.03,23.94,19.91,4.52,6.56,3.81,9.35-3.23,12.88-8.05,4.02-16,8.25-24.2,11.93-4.36,1.96-5.56,3.88-3.56,8.66,5.19,12.4,7.67,25.49,7.72,38.96.02,6.85-3.42,9.21-9.71,6.45-15.47-6.78-32.06-8.79-48.41-11.84-10.31-1.93-20.75-3.23-30.84-6.16-3.05-.88-4.63-.04-6.06,2.5-7.67,13.57-17.5,25.51-28.06,36.88-.91.98-1.83,1.94-2.81,2.84-5.06,4.64-7.52,4.75-12.28-.09-11.02-11.19-20.96-23.25-29.08-36.74-4.75-7.89-3.5-6.08-11.3-4.52-17.63,3.51-35.32,6.73-52.98,10.13-6.88,1.32-13.65,3.11-20.11,5.87-9.83,4.2-12.55,2.37-12.39-9.8ZM152.14,193.6c.06,0,.12,0,.18,0,0-5.33-.14-10.67.05-15.99.13-3.48,1.71-6.32,5.63-6.39,3.74-.07,5.09,2.67,5.47,5.94.27,2.31.49,4.64.51,6.96.06,7.83.19,15.67-.03,23.49-.13,4.5,1.63,5.09,5.42,3.72,4.46-1.62,8.6-3.75,11.87-7.17,17.08-17.9,20.23-39.39,14.1-62.21-5.77-21.44-19.55-38.37-34.28-54.48-2.67-2.91-4.42-1.67-6.49.58-12.59,13.69-23.88,28.29-31.18,45.54-8.3,19.6-7.04,39.14,1.94,58.09,4.54,9.59,11.8,16.87,22.5,19.99,3.05.89,4.4.22,4.35-3.07-.08-5-.02-10-.02-15ZM123.77,210.64c-.12-.81-.06-1.22-.23-1.44-17.74-22.58-20.61-47.62-12.29-74.49.83-2.69.82-5.14-.25-7.75-3.48-8.54-5.61-17.43-6.04-26.66-.13-2.78-1.48-4.63-3.36-6.39-17.24-16.11-37.35-27.14-59.94-33.71-1.33-.39-2.99-1.7-4.18-.34-1.11,1.26.1,2.85.58,4.2,7.08,19.8,12.77,39.97,15.95,60.78,1.79,11.74,4.47,23.21,9.09,34.17,8.66,20.54,22.17,36.65,42.72,46.16,5.65,2.61,11.52,4.75,17.96,5.45ZM192.49,210.28c17.54-3.33,32.29-11.47,43.95-24.74,13.09-14.9,20.8-32.62,24-51.96,3.98-24.07,9.36-47.68,18.07-70.49.4-1.04,1.28-2.21.4-3.27-.91-1.1-2.17-.39-3.25-.06-22.99,6.88-43.77,17.69-61.29,34.34-2.07,1.97-2.96,4.14-3.23,6.98-.81,8.47-2.11,16.88-5.6,24.74-1.52,3.43-1.47,6.64-.23,10.14,2.34,6.61,3.88,13.41,3.96,20.5.24,19.68-3.81,38-16.78,53.83ZM116.1,93.53c-.37,5.6.35,11.55,1.61,17.42.29,1.35.05,3.44,1.89,3.68,1.52.19,1.82-1.72,2.49-2.8,8.15-13.28,17.9-25.27,28.88-36.29,6.01-6.03,8.44-6.07,14.39.25,10.4,11.05,20.39,22.45,28.19,35.58.73,1.22,1.21,3.34,2.82,3.15,1.98-.23,1.86-2.57,2.15-4.07,2.48-12.95,2.64-25.85-1.64-38.5-7.31-21.65-20.97-39.21-36.14-55.78-2.58-2.82-4.25-1.18-6.09.81-12.41,13.38-23.36,27.76-31.29,44.33-4.83,10.09-7.97,20.47-7.25,32.21ZM152.16,247.04c0-5,.01-10,0-15-.02-6.96-.15-7.09-6.9-7.09-7,0-14,.07-21,.03-7.24-.04-7.94.64-6.4,7.71,5.59,25.64,20.23,46.07,37.5,64.98,2.55,2.79,4.36,1.23,6.12-.82,7.51-8.71,14.96-17.46,21.07-27.25,7.37-11.81,13.32-24.24,16.01-38.02,1.08-5.55.2-6.6-5.3-6.62-7.67-.03-15.34.2-22.99-.12-4.84-.2-6.44,1.58-6.33,6.34.25,10.66.12,21.33.02,32-.04,3.98-.59,7.98-5.71,8.5-3.79.39-5.92-2.69-6.05-8.65-.12-5.33-.02-10.67-.03-16ZM82.74,219.86c-5.36-1.96-10.8-3.91-16.19-5.96-1.77-.67-2.9.16-3.94,1.29-14.14,15.3-22.1,33.41-24.56,54.03-.44,3.65,1.22,3.34,3.74,2.53,8.57-2.74,17.36-4.53,26.19-6.25,13.71-2.67,27.63-4.13,41.25-7.38,3.82-.91,4.42-2.46,2.92-5.93-3.12-7.21-5.17-14.76-6.12-22.57-.89-7.31-2.98-8.32-9.27-4.43-11.24,6.95-21.18,15.51-30.67,24.64-2.83,2.72-5.93,4.78-9.54,1.35-2.71-2.57-1.81-6.44,2-9.91,7.14-6.49,14.24-13.03,22.12-18.64.88-.62,2.11-1.12,2.07-2.76ZM233.41,219.82c.02,1.69,1.23,2.19,2.11,2.83,7.43,5.39,14.36,11.33,20.91,17.76,4.87,4.78,5.96,7.91,3.13,10.85-2.71,2.82-5.69,2.05-10.57-2.64-9.15-8.8-19.08-16.61-29.73-23.48-5.97-3.85-8.41-2.72-9.12,4.12-.61,5.83-2.15,11.45-4,16.98-3.78,11.26-3.84,11.31,8.09,13.52,20.11,3.73,40.55,5.75,60.16,11.98,3.96,1.26,3.79-1.38,3.44-3.8-2.86-19.57-10.09-37.18-23.5-51.98-1.25-1.37-2.49-2.74-4.69-1.94-5.42,1.97-10.86,3.89-16.22,5.8ZM228.87,208.39c16.35-3.31,30.66-10.3,41.19-23.37,15.53-19.28,23.39-42.35,31.18-65.39,1.17-3.46-1.04-3.82-3.47-3.23-6.62,1.6-13.18,3.47-19.79,5.12-3.16.79-4.44,2.52-4.95,5.85-2.66,17.56-7.66,34.39-16.56,49.9-7.03,12.26-16.07,22.72-27.6,31.12ZM86.51,208.73c.28-1.54-.66-1.82-1.28-2.27-13.92-10.41-24.07-23.71-30.96-39.66-5.52-12.77-9.21-26.02-11.24-39.74-.42-2.83-1.56-4.59-4.37-5.32-6.6-1.72-13.16-3.58-19.77-5.26-3.62-.92-5.13.22-3.69,4.12,3.05,8.27,5.67,16.72,9.04,24.86,6.89,16.63,14.02,33.19,27.63,45.8,9.87,9.14,21.59,14.51,34.64,17.48ZM40.2,213.08c-2.4,0-4.06-.04-5.72,0-3.58.09-6.49-1.06-6.78-4.99-.31-4.2,2.58-5.85,6.31-6.16,2.65-.22,5.32-.14,7.98-.29,1.43-.08,3.09-.51,1.67-2.34-2.17-2.8-4.54-5.44-8.8-3.59-6.79,2.96-12.87,6.89-18.17,12.1-2.8,2.75-2.12,4.29,1.14,5.83,6.31,2.98,12.61,6.03,18.74,9.36,3.28,1.78,5.58,1.67,7.23-1.86,1.18-2.52,5.01-4.78,3.94-6.99-1.39-2.87-5.44-.58-7.55-1.07ZM276.42,213.04c-2.3.35-6.43-1.63-7.84.84-1.46,2.57,3,4.58,3.87,7.39.14.46.57.81.82,1.24,1.13,1.93,2.52,2.25,4.57,1.19,6.92-3.61,13.88-7.16,20.9-10.57,2.96-1.44,3.22-2.85.85-5.13-5.32-5.12-11.25-9.29-18.06-12.2-3.06-1.31-5.49-.64-7.53,1.85-.78.96-2.49,1.61-1.75,3.2.58,1.25,2.06.75,3.17.84,2.81.23,5.66.19,8.42.67,3.04.53,4.51,2.68,4.35,5.76-.17,3.22-2.13,4.73-5.19,4.89-1.99.1-3.99.02-6.58.02Z" />
  <path class="cls-1"
    d="M152.91,155.87c.15-3.32,1.69-5.58,5.02-5.68,3.25-.1,5.26,1.76,5.32,5.18.06,3.31-1.57,5.42-4.95,5.55-3.36.13-5.14-1.77-5.39-5.05Z" />
</svg>